<svg xmlns="http://www.w3.org/2000/svg" width="undefined" height="undefined" viewBox="0 0 20 20"><g fill="none"><path fill="url(#fluentColorGift200)" d="M4 9h12v6.5a2.5 2.5 0 0 1-2.5 2.5h-7A2.5 2.5 0 0 1 4 15.5z"/><rect width="14" height="4" x="3" y="6" fill="url(#fluentColorGift204)" rx="1"/><path fill="url(#fluentColorGift201)" fill-rule="evenodd" d="M9.25 18v-8h1.5v8z" clip-rule="evenodd"/><path fill="url(#fluentColorGift202)" fill-rule="evenodd" d="M10.75 5.75V10h-1.5V5.75z" clip-rule="evenodd"/><path fill="url(#fluentColorGift203)" fill-rule="evenodd" d="m10 2.613l.056-.058a2.75 2.75 0 1 1 1.923 4.695a175 175 0 0 0-1.229-.001v.003L10 7.25l-.75.002v-.003H8.021A2.75 2.75 0 1 1 10 2.613m2.884 1.003a1.25 1.25 0 0 0-2.134.884v1.249h.052c.431-.001.931-.001 1.188.001a1.25 1.25 0 0 0 .894-2.134M9.25 4.5a1.25 1.25 0 1 0-1.24 1.25c.257-.002.757-.002 1.188-.002h.052z" clip-rule="evenodd"/><defs><linearGradient id="fluentColorGift200" x1="9.234" x2="9.234" y1="21.537" y2="5.495" gradientUnits="userSpaceOnUse"><stop stop-color="#BB45EA"/><stop offset=".348" stop-color="#8B57ED"/><stop offset="1" stop-color="#5B2AB5"/></linearGradient><linearGradient id="fluentColorGift201" x1="10" x2="10" y1="5.5" y2="16.609" gradientUnits="userSpaceOnUse"><stop stop-color="#FB5937"/><stop offset="1" stop-color="#FFCD0F"/></linearGradient><linearGradient id="fluentColorGift202" x1="10" x2="10" y1="-8.5" y2="16" gradientUnits="userSpaceOnUse"><stop stop-color="#FB5937"/><stop offset="1" stop-color="#FFCD0F"/></linearGradient><linearGradient id="fluentColorGift203" x1="12.639" x2="9.794" y1="7.251" y2="-4.059" gradientUnits="userSpaceOnUse"><stop stop-color="#FF6F47"/><stop offset="1" stop-color="#FFCD0F"/></linearGradient><radialGradient id="fluentColorGift204" cx="0" cy="0" r="1" gradientTransform="matrix(18.0312 0 0 6.25 10 4.5)" gradientUnits="userSpaceOnUse"><stop offset=".196" stop-color="#5B2AB5"/><stop offset=".763" stop-color="#8B57ED"/><stop offset="1" stop-color="#BB45EA"/></radialGradient></defs></g></svg>